<?xml version="1.0" encoding="UTF-8" standalone="no"?>
<!-- Created with Inkscape (http://www.inkscape.org/) -->

<svg
   width="52.115128mm"
   height="52.638741mm"
   viewBox="0 0 52.115127 52.63874"
   version="1.1"
   id="svg5"
   inkscape:version="1.1.1 (eb90963e84, 2021-10-02)"
   xmlns:inkscape="http://www.inkscape.org/namespaces/inkscape"
   xmlns:sodipodi="http://sodipodi.sourceforge.net/DTD/sodipodi-0.dtd"
   xmlns="http://www.w3.org/2000/svg"
   xmlns:svg="http://www.w3.org/2000/svg">
  <sodipodi:namedview
     id="namedview7"
     pagecolor="#ffffff"
     bordercolor="#666666"
     borderopacity="1.0"
     inkscape:pageshadow="2"
     inkscape:pageopacity="0.0"
     inkscape:pagecheckerboard="0"
     inkscape:document-units="mm"
     showgrid="false"
     inkscape:zoom="1.7261105"
     inkscape:cx="60.830406"
     inkscape:cy="128.90253"
     inkscape:window-width="1920"
     inkscape:window-height="1026"
     inkscape:window-x="0"
     inkscape:window-y="26"
     inkscape:window-maximized="1"
     inkscape:current-layer="layer1" />
  <defs
     id="defs2" />
  <g
     inkscape:label="Layer 1"
     inkscape:groupmode="layer"
     id="layer1"
     transform="translate(-53.369007,-86.980705)">
    <path
       style="fill:none;stroke:#000000;stroke-width:1.62;stroke-miterlimit:4;stroke-dasharray:none;stroke-opacity:1"
       d="m 59.209907,137.50233 c -0.210205,-0.34686 -0.448115,-2.66395 -0.780047,-7.59696 -0.593134,-8.81491 -0.536601,-8.45709 -1.362863,-8.62542 -0.868404,-0.17693 -1.86942,-1.30302 -2.057454,-2.31454 -0.161815,-0.87051 1.088705,-13.08361 1.481407,-14.46791 0.367341,-1.29492 1.560643,-2.76113 2.720703,-3.3429 0.987274,-0.49511 1.289882,-0.52795 4.86338,-0.52795 3.504926,0 3.882132,0.039 4.702216,0.486 1.038614,0.56613 2.192547,1.83217 2.620186,2.87474 0.164991,0.40222 0.649832,3.80314 1.077453,7.55763 0.854346,7.50129 0.841169,7.88859 -0.30656,9.0087 -0.344512,0.33621 -0.910127,0.68842 -1.256923,0.78267 -0.735356,0.19984 -0.694942,-0.0627 -1.267583,8.23629 -0.479305,6.94644 -0.570459,7.74167 -0.929293,8.1072 -0.255051,0.2598 -1.16842,0.32152 -4.758904,0.32152 -4.373064,0 -4.448055,-0.008 -4.745718,-0.49907 z m 28.179731,0.12252 c -2.746568,-1.47062 -1.986733,-5.43896 1.102833,-5.75975 2.327315,-0.24163 4.025456,2.48682 2.810744,4.51613 -0.857195,1.43207 -2.554377,1.97138 -3.913577,1.24362 z m 8.15011,-0.0417 c -2.177051,-1.02096 -2.206298,-4.37838 -0.04724,-5.42202 2.125506,-1.02743 4.29171,0.353 4.29171,2.73492 0,1.25237 -0.576637,2.24785 -1.584253,2.7349 -0.9765,0.47202 -1.57471,0.46127 -2.660223,-0.0477 z m -21.727993,-2.07713 c -0.300066,-0.22923 -0.446669,-1.32087 -0.845959,-6.29955 l -0.482992,-6.02227 0.96815,-0.9647 c 0.532475,-0.53058 1.152144,-1.38409 1.37704,-1.89668 0.224888,-0.51259 0.567619,-0.96437 0.761625,-1.00396 0.40908,-0.0834 2.368012,0.14412 2.513202,0.29201 0.09753,0.0994 3.538038,13.72867 3.761026,14.89904 0.224965,1.18075 -0.07008,1.27337 -4.055678,1.27337 -2.568015,0 -3.739892,-0.0813 -3.996414,-0.27726 z m 10.118429,-2.00263 c -0.127093,-0.15598 -1.025737,-3.52471 -1.99701,-7.48605 -0.971255,-3.96133 -1.862925,-7.57673 -1.981469,-8.03421 l -0.215535,-0.83178 h -1.826919 c -1.858382,0 -2.511278,-0.25951 -2.511278,-0.99815 0,-0.79964 0.625676,-0.99815 3.146254,-0.99815 2.683815,0 2.844183,0.0674 3.085509,1.29655 l 0.137386,0.69975 h 10.519431 c 6.307994,0 10.743047,0.0865 11.077987,0.21631 0.72665,0.28144 0.71672,0.4845 -0.21535,4.40376 -1.21461,5.10735 -1.36818,5.56562 -1.91168,5.70457 -0.26255,0.0672 -3.974534,0.54499 -8.248836,1.06191 -4.274294,0.51693 -7.834504,1.00408 -7.911549,1.08257 -0.07701,0.0785 0.01823,0.85148 0.211591,1.71775 0.257188,1.15187 0.290013,1.69242 0.122156,2.01191 -0.259457,0.49383 -1.129812,0.58392 -1.480688,0.15326 z m -1.024522,-19.24036 c -1.109516,-1.15744 -1.966786,-1.37364 -5.139804,-1.29622 -1.692349,0.0413 -2.665581,-0.0224 -2.825283,-0.18519 -0.133998,-0.13649 -0.421212,-1.82925 -0.638271,-3.76168 -0.217042,-1.93243 -0.461198,-4.01691 -0.542564,-4.63217 -0.221928,-1.67827 -0.06726,-1.74931 4.012004,-1.8422 3.908562,-0.0889 5.227006,0.13279 6.512174,1.09553 1.444998,1.08248 1.887552,2.33484 2.453878,6.94416 0.572299,4.65789 0.604044,4.56982 -1.647434,4.56982 -1.265426,0 -1.370786,-0.0431 -2.1847,-0.89205 z M 76.362411,99.987683 c -3.84372,-1.823183 -3.880506,-7.263469 -0.06255,-9.247568 0.980958,-0.509781 3.119984,-0.575708 4.167746,-0.128454 1.873405,0.79969 3.030608,2.622134 3.030608,4.772803 0,3.784854 -3.754721,6.206956 -7.135822,4.603219 z M 62.877419,98.312065 C 60.545953,97.73389 59.0357,95.766296 59.0357,93.306967 c 0,-2.992796 2.097167,-5.092591 5.075836,-5.082196 1.225049,0.0043 1.615355,0.108027 2.498357,0.664121 3.752042,2.362964 3.056151,8.028851 -1.144281,9.316565 -1.105126,0.338795 -1.574026,0.35811 -2.588193,0.106608 z"
       id="path339" />
    <path
       style="fill:none;stroke:#000000;stroke-width:1.067;stroke-linecap:butt;stroke-linejoin:miter;stroke-miterlimit:4;stroke-dasharray:none;stroke-opacity:1"
       d="m 82.810832,119.60656 1.706238,7.23764 14.418471,-1.4968 1.852739,-6.15185 z"
       id="path926"
       sodipodi:nodetypes="ccccc" />
    <path
       style="fill:none;stroke:#000000;stroke-width:0.229323px;stroke-linecap:butt;stroke-linejoin:miter;stroke-opacity:1"
       d="m 86.471972,119.6678 1.351712,6.60371 v 0 z"
       id="path1246" />
    <path
       style="fill:none;stroke:#000000;stroke-width:0.229323px;stroke-linecap:butt;stroke-linejoin:miter;stroke-opacity:1"
       d="m 89.590129,119.68619 1.236707,6.37435 z"
       id="path1248" />
    <path
       style="fill:none;stroke:#000000;stroke-width:0.229323px;stroke-linecap:butt;stroke-linejoin:miter;stroke-opacity:1"
       d="m 92.660699,119.87432 0.858758,5.54173 z"
       id="path1250" />
    <path
       style="fill:none;stroke:#000000;stroke-width:0.229323px;stroke-linecap:butt;stroke-linejoin:miter;stroke-opacity:1"
       d="m 95.087799,119.39064 1.105588,6.37028 z"
       id="path1254"
       sodipodi:nodetypes="ccc" />
    <path
       style="fill:none;stroke:#000000;stroke-width:0.237622px;stroke-linecap:butt;stroke-linejoin:miter;stroke-opacity:1"
       d="m 83.168774,121.32226 17.165636,-1.18623 z"
       id="path1388" />
    <path
       style="fill:none;stroke:#000000;stroke-width:0.22535px;stroke-linecap:butt;stroke-linejoin:miter;stroke-opacity:1"
       d="M 84.064529,124.98638 99.490697,123.7992 Z"
       id="path1388-3" />
    <path
       style="fill:none;stroke:#000000;stroke-width:0.229323px;stroke-linecap:butt;stroke-linejoin:miter;stroke-opacity:1"
       d="m 83.590235,123.20681 15.98739,-1.18623 z"
       id="path1388-5" />
  </g>
</svg>
