<?xml version="1.0" encoding="UTF-8" standalone="no"?>
<!-- Created with Inkscape (http://www.inkscape.org/) -->

<svg
   width="48.004993mm"
   height="47.856018mm"
   viewBox="0 0 48.004993 47.856019"
   version="1.1"
   id="svg5"
   inkscape:version="1.1.1 (eb90963e84, 2021-10-02)"
   xmlns:inkscape="http://www.inkscape.org/namespaces/inkscape"
   xmlns:sodipodi="http://sodipodi.sourceforge.net/DTD/sodipodi-0.dtd"
   xmlns="http://www.w3.org/2000/svg"
   xmlns:svg="http://www.w3.org/2000/svg">
  <sodipodi:namedview
     id="namedview7"
     pagecolor="#ffffff"
     bordercolor="#666666"
     borderopacity="1.0"
     inkscape:pageshadow="2"
     inkscape:pageopacity="0.0"
     inkscape:pagecheckerboard="0"
     inkscape:document-units="mm"
     showgrid="false"
     inkscape:zoom="0.75277076"
     inkscape:cx="85.683455"
     inkscape:cy="169.37427"
     inkscape:window-width="1920"
     inkscape:window-height="1026"
     inkscape:window-x="0"
     inkscape:window-y="26"
     inkscape:window-maximized="1"
     inkscape:current-layer="layer1" />
  <defs
     id="defs2">
    <linearGradient
       id="linearGradient930"
       inkscape:swatch="solid">
      <stop
         style="stop-color:#000000;stop-opacity:1;"
         offset="0"
         id="stop928" />
    </linearGradient>
    <clipPath
       clipPathUnits="userSpaceOnUse"
       id="clipPath3018">
      <rect
         style="fill:#000000;stroke:#000000;stroke-width:0.263853;stroke-miterlimit:4;stroke-dasharray:none;stroke-opacity:1"
         id="rect3020"
         width="48.052422"
         height="35.443882"
         x="114.18965"
         y="45.168472" />
    </clipPath>
    <clipPath
       clipPathUnits="userSpaceOnUse"
       id="clipPath137">
      <rect
         style="fill:#000000;stroke:#000000;stroke-width:0.0766064"
         id="rect139"
         width="46.474609"
         height="20.932631"
         x="116.2141"
         y="46.200596" />
    </clipPath>
    <clipPath
       clipPathUnits="userSpaceOnUse"
       id="clipPath325">
      <rect
         style="fill:#000000;stroke:#000000;stroke-width:0.127358"
         id="rect327"
         width="21.916521"
         height="21.19709"
         x="132.83366"
         y="46.268921" />
    </clipPath>
  </defs>
  <g
     inkscape:label="Layer 1"
     inkscape:groupmode="layer"
     id="layer1"
     transform="translate(-82.210576,-103.4829)">
    <path
       id="path5910"
       style="fill:#000000;stroke:#000000;stroke-width:0.264583;stroke-miterlimit:4;stroke-dasharray:none;stroke-opacity:1"
       d="m 142.27051,46.240609 c -0.78846,0.02124 -1.58407,0.146805 -2.36866,0.378994 -3.34702,0.990516 -5.56841,3.871379 -5.42907,7.040775 0.0191,0.433778 0.0968,0.984095 0.17227,1.222673 0.0755,0.238576 0.15153,0.511643 0.16903,0.607174 0.0595,0.323867 0.23799,0.733506 0.31977,0.733506 0.0447,0 0.0813,0.04828 0.0813,0.107235 0,0.05895 0.11786,0.315894 0.26216,0.57143 0.14428,0.255535 0.22329,0.476842 0.17496,0.491616 -0.30613,0.09357 -1.21109,0.725618 -1.48903,1.040029 -0.51881,0.586911 -0.54958,0.782899 -0.51895,3.31057 l 0.0275,2.247526 0.24009,0.365283 c 0.81388,1.237991 3.34931,2.240427 6.41907,2.537401 0.90102,0.08716 3.86292,0.04539 4.76477,-0.06708 2.65001,-0.330508 4.86367,-1.165732 5.70579,-2.15302 0.51449,-0.603192 0.56635,-0.92475 0.53509,-3.299306 -0.0233,-1.771409 -0.0518,-2.163335 -0.1755,-2.409601 -0.1987,-0.395624 -0.86713,-1.022402 -1.42334,-1.334316 -0.2499,-0.140141 -0.46703,-0.262174 -0.48234,-0.27127 -0.0153,-0.0091 0.17095,-0.383943 0.41397,-0.832904 0.58733,-1.085071 0.72113,-1.56589 0.77843,-2.794473 0.0719,-1.541317 -0.225,-2.665682 -1.03898,-3.93782 -0.45837,-0.716362 -1.47858,-1.722757 -2.23731,-2.206882 -1.46709,-0.936131 -3.16637,-1.394266 -4.90097,-1.347536 z m 0.22341,0.537643 c 0.39106,9.5e-4 0.78348,0.03065 1.1741,0.09157 3.6185,0.564287 6.18733,3.261906 6.18812,6.498725 1.4e-4,0.540553 -0.0562,1.113855 -0.14319,1.456239 -0.61433,2.415235 -2.52618,4.227626 -5.23689,4.96512 -0.78984,0.214886 -2.70878,0.265293 -3.57184,0.09352 -2.19922,-0.437697 -4.1433,-1.80575 -5.10284,-3.590652 -0.53049,-0.986812 -0.70091,-1.683705 -0.70091,-2.868899 0,-1.231507 0.17869,-1.926813 0.76928,-2.997189 1.2339,-2.236316 3.88675,-3.655081 6.62417,-3.648434 z m -0.19488,2.281311 c -0.33974,0.0033 -0.54985,0.02786 -0.60992,0.07247 -0.0679,0.05046 -0.12443,0.23761 -0.12651,0.417188 -0.003,0.308706 -0.0267,0.33775 -0.46297,0.562126 -1.0321,0.530761 -1.49315,1.881389 -0.99376,2.911499 0.13265,0.273617 0.7439,0.849472 0.93669,0.882362 0.19839,0.03384 1.776,0.437525 2.03597,0.520994 0.28926,0.09287 0.36959,0.333488 0.20565,0.616968 -0.19128,0.330773 -0.27703,0.341762 -1.54232,0.197821 -0.25798,-0.02935 -0.70576,-0.204046 -0.70576,-0.275187 0,-0.02706 -0.12471,-0.115018 -0.27777,-0.195863 -0.32554,-0.171955 -0.27792,-0.209698 -0.88448,0.687968 l -0.36768,0.544498 0.302,0.252172 c 0.34329,0.286631 1.0326,0.595087 1.42927,0.639983 0.31335,0.03545 0.40453,0.137286 0.35046,0.390257 -0.0216,0.100778 0.006,0.257997 0.0608,0.349614 0.0904,0.151122 0.17544,0.166483 0.91678,0.166483 0.51796,0 0.85561,-0.03452 0.92269,-0.0945 0.0582,-0.05205 0.10606,-0.24293 0.10606,-0.424044 0,-0.322014 0.0111,-0.334537 0.50711,-0.55625 0.56265,-0.251542 1.01595,-0.716738 1.16441,-1.194761 0.13608,-0.438252 0.11281,-1.320032 -0.0442,-1.656509 -0.17008,-0.364642 -0.60142,-0.773791 -1.01851,-0.966093 -0.1745,-0.08045 -0.70933,-0.235396 -1.18865,-0.344229 -0.52276,-0.1187 -0.91676,-0.252612 -0.98406,-0.334925 -0.19498,-0.238446 -0.1355,-0.486836 0.14804,-0.617947 0.42777,-0.197808 0.89766,-0.150085 1.55901,0.158159 0.32854,0.153137 0.64805,0.261504 0.70951,0.240422 0.0615,-0.02108 0.27654,-0.331547 0.47805,-0.689927 l 0.36606,-0.651733 -0.29016,-0.216918 c -0.15965,-0.119175 -0.5393,-0.313632 -0.84411,-0.432367 l -0.55447,-0.215938 -0.0258,-0.358919 -0.0264,-0.358429 -0.86886,-0.02252 c -0.14124,-0.0037 -0.26897,-0.005 -0.38222,-0.0039 z m 0.5674,0.519526 c 0.0364,-0.01085 0.0894,0.134151 0.11736,0.322194 0.0506,0.339178 0.1794,0.482849 0.4339,0.484271 0.2321,0.0013 1.0557,0.352933 1.05675,0.451463 0.003,0.224218 -0.20827,0.502101 -0.34454,0.451464 -1.03483,-0.384538 -1.59465,-0.434911 -2.18347,-0.195863 -0.66284,0.269099 -0.82827,0.859642 -0.39137,1.398949 0.28399,0.350558 0.43557,0.416521 1.51002,0.65663 0.93233,0.208348 1.22507,0.357643 1.47557,0.753092 0.26704,0.421586 0.27771,1.246646 0.0216,1.695682 -0.18572,0.325533 -0.79992,0.784429 -1.04974,0.784429 -0.31122,0 -0.53564,0.232864 -0.53564,0.55625 v 0.311422 h -0.39676 c -0.39482,0 -0.39729,-0.0018 -0.39729,-0.274208 0,-0.317394 -0.1758,-0.449828 -0.79295,-0.595422 -0.49803,-0.117493 -1.05891,-0.370111 -1.05891,-0.476926 0,-0.04465 0.0578,-0.181109 0.12867,-0.303587 l 0.12865,-0.222794 0.46674,0.204677 c 0.37288,0.163831 0.62584,0.210771 1.26023,0.233077 0.71502,0.02515 0.82445,0.0098 1.10251,-0.156691 0.16978,-0.10165 0.38479,-0.323284 0.4775,-0.492594 0.1531,-0.279563 0.15723,-0.33759 0.0442,-0.62774 -0.14362,-0.368519 -0.55368,-0.652924 -1.03844,-0.720285 -0.36543,-0.05078 -1.26931,-0.256351 -1.60477,-0.365284 -0.32543,-0.105674 -0.68037,-0.64256 -0.74882,-1.132087 -0.12517,-0.895932 0.32132,-1.583342 1.22955,-1.893503 0.3968,-0.135583 0.40591,-0.146363 0.40591,-0.482801 0,-0.340782 0.003,-0.344229 0.309,-0.344229 0.16978,0 0.33832,-0.0087 0.37468,-0.01959 z m -6.82874,8.225253 0.73483,0.63019 c 1.29312,1.110099 2.55767,1.720177 4.17368,2.012977 0.98414,0.178316 2.75985,0.121534 3.66228,-0.117026 1.38481,-0.366088 2.84755,-1.160896 3.78446,-2.056559 0.22671,-0.216719 0.48018,-0.394 0.5631,-0.393684 0.23894,8.35e-4 1.25032,0.725962 1.47288,1.055701 0.27975,0.414492 0.17384,0.764841 -0.36392,1.202107 -1.02037,0.829703 -3.25395,1.467733 -5.89742,1.684419 -4.36542,0.357835 -9.25645,-0.793629 -9.76049,-2.29796 -0.084,-0.250509 -0.0723,-0.327174 0.0845,-0.553801 0.23585,-0.34076 0.57463,-0.621822 1.11273,-0.923492 z m -1.73934,2.757258 c 0.0294,0 0.19845,0.101633 0.37521,0.226223 0.17677,0.124587 0.6083,0.355556 0.95931,0.513159 3.90509,1.75336 11.19125,1.557708 14.43536,-0.387807 0.32247,-0.193391 0.60511,-0.351575 0.62824,-0.351575 0.0811,0 0.0398,0.910046 -0.0554,1.222183 -0.31551,1.034617 -2.65383,2.075127 -5.47107,2.434085 -4.03595,0.51424 -8.41946,-0.185029 -10.17985,-1.623703 -0.60125,-0.491366 -0.74505,-0.775205 -0.74505,-1.472888 0,-0.307932 0.024,-0.559677 0.0533,-0.559677 z m -0.001,2.287188 c 0.0286,0 0.21706,0.126986 0.41882,0.282531 0.20175,0.155544 0.76383,0.455233 1.24892,0.665933 1.4988,0.650989 3.09137,0.982766 5.25036,1.093893 3.73183,0.192089 7.13257,-0.454437 8.92015,-1.695681 0.27483,-0.190839 0.52292,-0.346676 0.55125,-0.346676 0.0914,0 0.0551,0.641923 -0.0554,0.976375 -0.31346,0.948725 -2.15827,1.862103 -4.74378,2.348883 -0.67986,0.128002 -1.25409,0.162534 -3.04319,0.182643 -2.41002,0.02708 -2.40141,0.02784 -3.76293,-0.198801 -2.32927,-0.387734 -4.14136,-1.216733 -4.66464,-2.133924 -0.16052,-0.281371 -0.25133,-1.175176 -0.11951,-1.175176 z m -4.28513,4.585145 c -0.20715,0.0016 -0.42697,0.0049 -0.66215,0.01028 -1.53443,0.03544 -2.19603,0.09757 -5.08131,0.478394 -1.82432,0.240783 -3.88783,0.493827 -4.58604,0.562126 -1.37841,0.134834 -1.72457,0.210486 -2.19586,0.479374 -0.6581,0.375465 -1.21606,1.15488 -1.24085,1.733385 -0.0395,0.918668 0.0235,3.85257 0.0921,4.284987 0.10042,0.633497 0.36256,0.983492 0.92378,1.235403 0.55383,0.24859 0.71744,0.246209 1.97244,-0.03379 2.23307,-0.498204 2.4024,-0.518276 4.42671,-0.516097 2.84548,0.0031 3.65755,0.171386 6.88795,1.425392 3.02254,1.173316 5.78603,2.164452 6.2538,2.243116 0.2183,0.03671 0.83375,0.05322 1.36736,0.03673 1.36703,-0.04226 2.26562,-0.303783 3.3958,-0.988128 0.63409,-0.383958 1.63613,-0.830964 3.38503,-1.510102 2.78401,-1.081094 3.44921,-1.457747 5.9814,-3.388423 2.52545,-1.925545 3.81165,-2.795493 4.81322,-3.25524 0.15864,-0.07281 0.46636,-0.284848 0.68368,-0.471048 0.37013,-0.317103 0.39515,-0.364975 0.39515,-0.754071 0,-0.790345 -0.53552,-1.142587 -1.71998,-1.132088 -0.84189,0.0075 -1.84178,0.210499 -3.21923,0.654183 -0.60108,0.193606 -1.29342,0.355709 -1.6995,0.397599 -0.37689,0.03888 -0.75422,0.102895 -0.83818,0.142491 -0.084,0.0396 -0.38053,0.114196 -0.65946,0.165505 -0.27894,0.05131 -0.50711,0.126184 -0.50711,0.166482 0,0.0403 -0.0827,0.07296 -0.18357,0.07296 -0.10084,0 -0.47228,0.124345 -0.82527,0.276166 -0.353,0.151824 -0.69671,0.276514 -0.76442,0.277146 -0.0677,6.09e-4 -0.41887,0.14518 -0.78005,0.321215 -1.09315,0.532794 -1.18303,0.54731 -2.04136,0.331496 -0.5887,-0.148023 -1.09787,-0.201438 -2.4677,-0.258539 -2.01148,-0.08384 -2.9834,-0.181432 -3.90506,-0.392214 -0.91122,-0.208393 -1.14529,-0.33275 -1.5504,-0.823112 -0.60681,-0.734501 -1.27776,-1.127287 -2.47633,-1.450364 -0.90871,-0.244953 -1.72446,-0.332289 -3.17454,-0.321215 z m 0.12166,0.552334 c 1.51879,-0.0047 2.34022,0.100357 3.21115,0.387318 0.97893,0.322538 1.29289,0.540852 2.03382,1.41315 0.58972,0.694257 2.26223,1.043398 5.65571,1.180072 1.42758,0.0575 1.76719,0.09801 2.6922,0.322193 2.00175,0.48513 2.44154,0.639622 2.66474,0.936714 0.2416,0.321563 0.25798,0.638493 0.0447,0.874037 -0.41457,0.457809 -1.65786,0.606918 -7.00908,0.841231 -2.68298,0.117467 -3.37355,0.123625 -4.63072,0.04113 -0.8126,-0.05332 -1.62251,-0.116959 -1.79965,-0.14151 -0.27501,-0.03812 -0.33096,-0.02015 -0.38221,0.124371 -0.033,0.09308 -0.0152,0.217411 0.0393,0.276166 0.38566,0.415535 5.98578,0.416239 11.24897,0.0015 1.92969,-0.152067 2.48676,-0.310825 3.02919,-0.863265 0.3384,-0.344595 0.37071,-0.767368 0.0974,-1.272126 -0.22821,-0.421546 -0.28546,-0.461852 -1.09389,-0.776107 l -0.66538,-0.258539 0.55126,-0.217897 c 0.30312,-0.119747 0.85478,-0.353243 1.22577,-0.518547 0.37101,-0.165302 0.69375,-0.282825 0.7176,-0.261477 0.054,0.04822 0.89016,-0.294023 0.93077,-0.380953 0.0162,-0.03485 0.0607,-0.04618 0.0991,-0.02497 0.0383,0.02121 0.28223,-0.0178 0.54156,-0.08667 0.27469,-0.07294 0.63308,-0.108921 0.85864,-0.08618 0.30485,0.03073 0.57799,-0.02525 1.28339,-0.262947 2.03834,-0.686857 3.46501,-0.944603 4.2415,-0.766801 0.34345,0.07864 0.45691,0.145067 0.52004,0.306035 0.14849,0.378708 0.0126,0.573498 -0.64546,0.924472 -0.33925,0.180943 -0.64982,0.329049 -0.69014,0.329049 -0.0403,0 -0.31746,0.175734 -0.61585,0.390748 -0.29841,0.215011 -0.6943,0.476786 -0.88018,0.581711 -0.3584,0.202314 -2.23161,1.539372 -2.54845,1.819075 -0.10324,0.09116 -0.26242,0.219429 -0.35315,0.284981 -0.0907,0.06555 -0.54519,0.406246 -1.00991,0.757009 -1.50936,1.139202 -2.04501,1.419545 -4.81807,2.519773 -2.30314,0.913785 -2.65071,1.067955 -3.31774,1.472399 -0.72092,0.437115 -1.51553,0.754216 -2.22816,0.889215 -0.65335,0.123778 -1.71138,0.140999 -2.28575,0.03722 -0.44917,-0.08116 -1.98244,-0.633465 -5.66487,-2.040399 -2.24904,-0.859287 -3.14905,-1.163662 -3.87006,-1.309344 -1.34352,-0.271467 -2.84894,-0.383838 -4.40087,-0.32856 -1.30534,0.0465 -1.72759,0.107805 -3.93197,0.57143 -0.57883,0.121737 -1.1165,0.193531 -1.24139,0.165505 -0.33513,-0.07521 -0.66974,-0.395752 -0.76766,-0.734975 -0.14011,-0.485343 -0.16059,-4.33683 -0.0253,-4.748692 0.21934,-0.667761 1.25402,-1.273597 2.17539,-1.273597 0.4743,0 2.86767,-0.284289 6.08423,-0.722733 2.04421,-0.278638 2.6435,-0.329729 4.23344,-0.361368 0.24761,-0.0049 0.47909,-0.0081 0.69606,-0.0088 z m 33.86053,26.34794 v 0.25462 c 0.0376,-0.06955 0.0624,-0.122692 0.0624,-0.142979 0,-0.0384 -0.0247,-0.07677 -0.0624,-0.111641 z"
       clip-path="url(#clipPath325)"
       transform="matrix(2.1122485,0,0,2.211177,-197.3088,2.1596307)" />
  </g>
  <style
     type="text/css"
     id="style798">
	.st0{fill:#003087;}
	.st1{fill:#009CDE;}
	.st2{fill:#012169;}
</style>
</svg>
