<?xml version="1.0" encoding="UTF-8" standalone="no"?>
<!-- Created with Inkscape (http://www.inkscape.org/) -->

<svg
   width="48.716015mm"
   height="46.565598mm"
   viewBox="0 0 48.716015 46.565598"
   version="1.1"
   id="svg5"
   inkscape:version="1.1.1 (eb90963e84, 2021-10-02)"
   xmlns:inkscape="http://www.inkscape.org/namespaces/inkscape"
   xmlns:sodipodi="http://sodipodi.sourceforge.net/DTD/sodipodi-0.dtd"
   xmlns="http://www.w3.org/2000/svg"
   xmlns:svg="http://www.w3.org/2000/svg">
  <sodipodi:namedview
     id="namedview7"
     pagecolor="#ffffff"
     bordercolor="#666666"
     borderopacity="1.0"
     inkscape:pageshadow="2"
     inkscape:pageopacity="0.0"
     inkscape:pagecheckerboard="0"
     inkscape:document-units="mm"
     showgrid="false"
     inkscape:zoom="2.3974188"
     inkscape:cx="62.358735"
     inkscape:cy="77.792"
     inkscape:window-width="1920"
     inkscape:window-height="1026"
     inkscape:window-x="0"
     inkscape:window-y="26"
     inkscape:window-maximized="1"
     inkscape:current-layer="layer1" />
  <defs
     id="defs2" />
  <g
     inkscape:label="Layer 1"
     inkscape:groupmode="layer"
     id="layer1"
     transform="translate(-73.269727,-91.690749)">
    <path
       id="path51"
       style="fill:#000000;stroke-width:0.999999"
       d="M 50.898438 0.001953125 C 16.285762 0.028272279 2.2357944 0.31450144 1.4921875 0.93164062 C -0.39039512 2.4940482 -0.54545374 172.73583 1.3339844 174.61523 C 3.0517305 176.33299 4.9181907 176.10586 8.1855469 173.7793 C 9.7587563 172.65904 13.081272 170.84233 15.568359 169.74219 C 20.553647 167.53695 19.68985 167.31515 29.632812 173.35352 C 35.320582 176.8077 37.72988 176.51057 42.013672 171.82422 L 45.662109 167.83203 L 50.492188 171.26367 C 58.530881 176.979 61.945827 176.735 72.992188 169.65625 L 76.349609 167.50586 L 81.492188 170.12109 C 84.320163 171.55943 87.876133 173.53572 89.394531 174.51367 C 91.517704 175.88118 92.556911 176.03902 93.894531 175.19531 C 95.520745 174.16959 95.649541 168.69399 95.888672 90.966797 L 96.144531 7.8359375 L 139.28125 7.5761719 C 179.10889 7.3355369 182.50053 7.1802541 183.51953 5.5644531 C 184.32438 4.2882012 184.32453 3.3407013 183.51953 2.0644531 C 182.4836 0.42210493 176.89157 0.30020672 92.632812 0.060546875 C 76.256591 0.01396798 62.435993 -0.0068199259 50.898438 0.001953125 z M 8.1328125 7.8144531 L 16.123047 7.8144531 L 24.111328 7.8144531 L 24.373047 46.957031 C 24.61381 82.979595 24.772253 86.185499 26.382812 87.201172 C 27.658985 88.005947 28.606643 88.005947 29.882812 87.201172 C 31.493379 86.185499 31.653775 82.979595 31.894531 46.957031 L 32.15625 7.8144531 L 60.144531 7.8144531 L 88.132812 7.8144531 L 88.132812 85.921875 C 88.132812 159.92536 88.040872 163.98984 86.382812 163.28711 C 80.625276 160.84697 76.400558 159.72255 74.417969 160.10156 L 72.15625 160.5332 L 71.894531 121.0332 C 71.65393 84.668377 71.493893 81.445697 69.882812 80.429688 C 68.606635 79.624913 67.658989 79.624875 66.382812 80.429688 C 64.768266 81.447889 64.613689 84.792014 64.373047 123.64453 C 64.115381 165.24621 64.086462 165.77064 62.015625 166.87891 C 60.242668 167.82776 59.118386 167.44796 54.724609 164.42188 C 46.108496 158.48771 41.144442 158.60313 37.470703 164.82227 C 36.498367 166.46833 35.459735 167.81445 35.164062 167.81445 C 34.868393 167.81445 32.449004 166.26756 29.787109 164.375 C 22.481732 159.1811 19.905526 159.0393 9.8828125 163.28711 C 8.2247678 163.98984 8.1328125 159.92536 8.1328125 85.921875 L 8.1328125 7.8144531 z M 144.13281 23.693359 C 138.39522 23.693359 132.6583 26.22256 127.59961 31.28125 C 120.53238 38.348509 118.57925 45.822853 121.34961 55.199219 C 122.85462 60.293039 131.2246 68.960779 136.13281 70.507812 C 145.4402 73.441482 153.63151 71.386069 160.66797 64.349609 C 170.78535 54.232233 170.78535 41.398664 160.66797 31.28125 C 155.60928 26.22256 149.87041 23.693359 144.13281 23.693359 z M 144.13281 31.832031 C 148.07 31.832031 152.00866 33.453998 155.25195 36.697266 C 163.24244 44.687829 160.7375 58.158195 150.46289 62.451172 C 134.29509 69.20651 120.64908 49.063877 133.01562 36.697266 C 136.25889 33.453998 140.19563 31.832031 144.13281 31.832031 z M 144.13477 79.740234 C 137.11611 79.740234 130.09515 80.180516 129.41211 81.064453 C 128.8809 81.751987 124.78711 91.539451 120.31445 102.81445 L 112.18359 123.31445 L 108.0625 148.09766 C 104.78002 167.84402 104.18995 173.17865 105.16016 174.34766 C 106.98351 176.54466 181.28406 176.54466 183.10742 174.34766 C 184.07755 173.17872 183.48955 167.84282 180.21875 148.09766 L 176.11328 123.31445 L 167.96289 102.81445 C 163.47988 91.539451 159.3784 81.751987 158.84961 81.064453 C 158.16969 80.180516 151.15342 79.740234 144.13477 79.740234 z M 134.63281 87.767578 L 144.13281 88.041016 L 153.63281 88.314453 L 159.80273 103.31445 C 163.19573 111.56448 166.00814 118.65196 166.05273 119.06445 L 166.05273 119.06641 C 166.09722 119.4789 156.19663 119.81641 144.05078 119.81641 C 131.79638 119.81641 122.11558 119.42449 122.30078 118.9375 C 122.48409 118.45485 125.33279 111.24497 128.63281 102.91406 L 134.63281 87.767578 z M 119.44727 127.81445 L 144.13281 127.81445 L 168.82031 127.81445 L 171.99609 147.06445 C 173.74261 157.65197 175.16368 166.65196 175.15234 167.06445 C 175.1418 167.47695 161.18283 167.81445 144.13281 167.81445 C 127.08283 167.81445 113.12657 167.47695 113.11523 167.06445 C 113.10473 166.65196 114.52496 157.65197 116.27148 147.06445 L 119.44727 127.81445 z "
       transform="matrix(0.26458333,0,0,0.26458333,73.269727,91.690749)" />
  </g>
</svg>
